<?xml version="1.0" encoding="UTF-8"?><svg xmlns="http://www.w3.org/2000/svg" xmlns:xlink="http://www.w3.org/1999/xlink" viewBox="0 0 2160 1080"><defs><style>.cls-1{fill:none;}.cls-2{fill:url(#_称未設定グラデーション_5);}.cls-3{fill:url(#_称未設定グラデーション_3);}.cls-4{fill:url(#_称未設定グラデーション_7);}.cls-5{clip-path:url(#clippath);}.cls-6{fill:#ebebe7;}</style><clipPath id="clippath"><rect class="cls-1" width="2160" height="1080"/></clipPath><linearGradient id="_称未設定グラデーション_7" x1="-607.3" y1="372.3" x2="1845" y2="372.3" gradientTransform="matrix(1, 0, 0, 1, 0, 0)" gradientUnits="userSpaceOnUse"><stop offset="0" stop-color="#ebebe7"/><stop offset=".3" stop-color="#e9e9e5"/><stop offset=".42" stop-color="#e2e2de"/><stop offset=".51" stop-color="#d5d5d2"/><stop offset=".58" stop-color="#c4c4c1"/><stop offset=".64" stop-color="#aeaeab"/><stop offset=".69" stop-color="#92928f"/><stop offset=".74" stop-color="#71716f"/><stop offset=".79" stop-color="#4a4a49"/><stop offset=".83" stop-color="#202020"/><stop offset=".86" stop-color="#000"/></linearGradient><linearGradient id="_称未設定グラデーション_5" x1="-1247.43" y1="538.15" x2="1824.11" y2="538.15" gradientTransform="matrix(1, 0, 0, 1, 0, 0)" gradientUnits="userSpaceOnUse"><stop offset="0" stop-color="#ebebe7"/><stop offset=".19" stop-color="#e8e8e4"/><stop offset=".33" stop-color="#dfdfdb"/><stop offset=".44" stop-color="#cfcfcc"/><stop offset=".54" stop-color="#babab7"/><stop offset=".64" stop-color="#9e9e9b"/><stop offset=".73" stop-color="#7b7b79"/><stop offset=".82" stop-color="#535351"/><stop offset=".9" stop-color="#252524"/><stop offset=".96" stop-color="#000"/></linearGradient><linearGradient id="_称未設定グラデーション_3" x1="-1229.42" y1="673.62" x2="1831.1" y2="673.62" gradientTransform="matrix(1, 0, 0, 1, 0, 0)" gradientUnits="userSpaceOnUse"><stop offset="0" stop-color="#ebebe7"/><stop offset=".25" stop-color="#e8e8e4"/><stop offset=".37" stop-color="#e1e1dd"/><stop offset=".46" stop-color="#d4d4d0"/><stop offset=".54" stop-color="#c1c1be"/><stop offset=".61" stop-color="#a9a9a6"/><stop offset=".67" stop-color="#8c8c89"/><stop offset=".73" stop-color="#686867"/><stop offset=".79" stop-color="#40403e"/><stop offset=".84" stop-color="#131312"/><stop offset=".86" stop-color="#000"/></linearGradient></defs><g id="_イヤー_1"><rect class="cls-6" width="2160" height="1080"/></g><g id="_イヤー_2"><g class="cls-5"><g><polygon class="cls-4" points="202.67 549.37 -145.6 474.91 -142.97 549.36 -607.3 450.09 -576.82 210.55 -242.24 260.19 -242.24 195.24 103.39 260.19 103.38 195.24 449.02 260.19 449.03 195.25 794.67 260.19 794.68 195.25 1142.97 260.76 1142.95 195.25 1491.24 260.76 1491.23 195.25 1795.41 238.15 1745.54 267.24 1782.61 322.13 1782.61 357.68 1845 362.67 1745.6 405.25 1745.6 474.9 1587.84 474.9 1589.64 526.17 1479.36 526.17 1239.56 474.9 1241.37 526.17 1131.08 526.17 891.29 474.9 893.91 549.36 545.66 474.91 548.29 549.36 200.03 474.91 202.67 549.37"/><polygon class="cls-2" points="-1247.43 405.34 -1247.43 670.96 1780.15 670.96 1780.47 595.6 1741.99 592.51 1741.99 580.19 1819.04 507.66 1768.48 502.96 1824.11 425.02 1818.34 405.34 -1247.43 405.34"/><path class="cls-3" d="M1798.19,758.57l1.07-161.53c-28.45-1.07-58.54-7.79-87-20.58-39.45-17.73-93.48-42.01-189.33-42.01s-149.88,24.28-189.33,42.01c-28.46,12.79-57.43,19.84-85.9,19.84s-57.44-7.05-85.9-19.84c-39.45-17.73-93.48-42.01-189.33-42.01s-149.88,24.28-189.33,42.01c-28.46,12.79-57.43,19.84-85.9,19.84s-57.44-7.05-85.9-19.84c-39.45-17.73-93.48-42.01-189.33-42.01s-149.88,24.28-189.33,42.01c-28.46,12.79-57.43,19.84-85.9,19.84s-57.44-7.05-85.9-19.84c-39.45-17.73-93.48-42.01-189.33-42.01s-149.88,24.28-189.33,42.01c-28.46,12.79-57.43,19.84-85.9,19.84s-57.44-7.05-85.9-19.84c-39.45-17.73-93.48-42.01-189.33-42.01s-149.88,24.28-189.33,42.01c-28.46,12.79-57.43,19.84-85.9,19.84s-57.44-7.05-85.9-19.84c-39.45-17.73-93.48-42.01-189.33-42.01l-.02,168.2c28.48,0,57.44,7.05,85.9,19.84,39.45,17.73,93.48,42.01,189.33,42.01s149.88-24.28,189.33-42.01c28.46-12.79,57.43-19.84,85.9-19.84s57.44,7.05,85.9,19.84c39.45,17.73,93.48,42.01,189.33,42.01s149.88-24.28,189.33-42.01c28.46-12.79,57.43-19.84,85.9-19.84s57.44,7.05,85.9,19.84c39.45,17.73,93.48,42.01,189.33,42.01s149.88-24.28,189.33-42.01c28.46-12.79,57.43-19.84,85.9-19.84s57.44,7.05,85.9,19.84c39.45,17.73,93.48,42.01,189.33,42.01s149.88-24.28,189.33-42.01c28.46-12.79,57.43-19.84,85.9-19.84s57.44,7.05,85.9,19.84c39.45,17.73,93.48,42.01,189.33,42.01s149.88-24.28,189.33-42.01c28.46-12.79,57.43-19.84,85.9-19.84s57.44,7.05,85.9,19.84c38.06,17.11,89.7,40.31,179.38,41.92l9.99-5.84Zm-2.63-88.05l2.69,69.28-34.04,12.13-11.6-43.04,42.95-38.37Z"/><path d="M1804.58,344.7c13.12-.75,26.06-2.06,38.44-3.56l2.06,21.56c-37.31,7.5-77.81,8.06-107.81,8.06l-3.56-24.19c12,0,25.88,0,40.5-.38v-21.75c-20.06-5.44-33.94-21.56-33.94-42.38,0-25.5,21.56-44.25,49.12-44.25s49.31,18.75,49.31,44.25c0,20.81-14.25,37.12-34.12,42.38v20.25Zm-34.69-62.62c0,12.56,8.62,18.75,19.5,18.75s19.69-6.19,19.69-18.75-8.62-18.56-19.69-18.56-19.5,6.19-19.5,18.56Zm112.12-54.19v176.62h-30.38V227.89h30.38Z"/><path d="M1808.01,646.77c-.38,3.94-.75,8.06-.94,12.19,7.88-1.5,16.31-2.25,25.5-2.25h3.75c1.12-3,2.06-6.38,3-9.75l23.25,6.94c-.75,2.44-1.5,4.69-2.44,6.94,23.81,7.69,35.25,26.25,35.25,48.94,0,31.88-21,56.25-73.88,59.62l-6.75-20.62-19.88,11.62c-1.31-2.81-2.62-5.81-3.75-8.81-10.88,6.94-21.19,10.12-30,10.12-17.06,0-27.94-11.25-27.94-30,0-24,15.19-51,47.44-65.06,.38-6.38,.75-12.56,.94-18.75-13.5,.38-27.75,.56-42.56,0l.75-26.44c15,.75,30,1.12,44.06,1.12,1.12-10.5,2.25-19.31,3-26.25l28.31,1.69c-1.31,7.12-2.44,15.38-3.75,24,21.38-.94,42.38-3,64.5-6.38l1.5,24.94c-22.31,2.44-45,4.69-69.38,6.19Zm-40.88,89.44c4.69,0,11.44-2.44,17.62-7.69-2.25-11.44-3.56-23.81-4.12-36.19-12.94,8.81-20.62,22.12-20.62,33.75,0,6.94,2.44,10.12,7.12,10.12Zm39.75-27.19c6.94-8.06,14.06-18,20.25-30.38-6.75,0-14.62,1.12-21.94,3.38-.19,8.62,.38,18,1.69,27Zm9.94,35.62c36.19-3.38,49.5-17.06,49.5-36.75,0-12.38-5.25-21.19-15.38-25.31-10.5,21.38-24,39-38.06,52.5,1.12,3.38,2.44,6.38,3.94,9.56Z"/><path d="M1790.88,518.06c-18.56,1.5-37.5,2.44-51.38,2.81l-3.75-21c17.62-10.88,34.5-26.25,48-43.12h-59.06v-23.81h68.25c-1.69-6.56-3.75-13.31-5.62-18.75l32.81-2.25c2.06,5.81,4.31,13.69,6,21h64.5v23.81h-70.69c-13.12,15-26.62,27.75-40.88,38.44,14.44-.94,29.62-1.88,42.56-3,8.25-7.69,16.31-15.56,24-23.81l20.62,18c-26.25,26.06-55.31,49.88-85.12,69,20.62-1.5,43.88-3.75,65.25-6.19-3.38-5.81-6.75-11.25-10.12-16.31l22.5-12.38c10.31,15.19,21.38,35.81,30.56,55.31l-23.62,11.62c-2.06-4.5-4.12-9.19-6.38-13.88-41.25,3.56-90.38,6.56-124.12,7.88l-3.56-23.44c21.56-12.75,41.06-25.88,59.25-39.94Z"/></g></g><g><path d="M2092.35,234.15h17.49v3.57h-17.49v-3.57Zm1.5,9.09c0-2.91,2.88-4.83,7.26-4.83s7.23,1.92,7.23,4.83v.99c0,2.88-2.88,4.83-7.23,4.83s-7.26-1.95-7.26-4.83v-.99Zm1.71-13.59h11.07v3.66h-11.07v-3.66Zm1.29,20.37h5.58v3.15h14.76v4.68h-20.34v-7.83Zm4.26-4.86c1.23,0,1.83-.54,1.83-1.26v-.63c0-.72-.6-1.26-1.83-1.26s-1.86,.54-1.86,1.26v.63c0,.72,.6,1.26,1.86,1.26Zm15.18-16.11v7.95h3.66v5.16h-3.66v9.39h-5.43v-22.5h5.43Z"/><path d="M2096.1,261.75h19.8v5.37c0,1.2-.18,2.82-.6,4.26h4.5v4.65h-11.01v3h7.11v10.62h-5.58v-6h-14.22v-4.62h7.11v-3.03h-11.01v-4.65l17.58,.03c.39-1.17,.57-2.31,.57-3.18v-1.8h-14.25v-4.65Z"/><path d="M2117.79,292.05v29.1h-5.58v-14.04h-3.09c-.27,5.34-3.45,8.31-7.92,8.31s-7.95-3.27-7.95-9.09v-2.34c0-5.85,3.27-9.09,7.95-9.09,4.11,0,7.11,2.49,7.8,7.05h3.21v-9.9h5.58Zm-16.59,18.21c1.92,0,2.58-1.62,2.58-3.72v-2.76c0-2.1-.66-3.72-2.58-3.72s-2.58,1.62-2.58,3.72v2.76c0,2.1,.66,3.72,2.58,3.72Z"/></g><g><path d="M2103.12,410.15v-4.32h5.79v4.32h10.29v16.89h-5.46v-1.71h-4.83v8.7h-5.79v-8.7h-4.83v1.71h-5.43v-16.89h10.26Zm0,10.38v-5.64h-4.83v5.64h4.83Zm10.62,0v-5.64h-4.83v5.64h4.83Z"/><path d="M2101.62,456.28c-2.85-2.91-4.98-6.39-6.18-10.35h-3.3v-4.95h11.13c-.3-1.2-.63-2.4-.93-3.39l6.03-.42c.3,1.11,.69,2.52,.96,3.81h10.53v4.95h-3.48c-1.08,3.93-3.15,7.35-5.97,10.29,2.73,1.59,5.97,2.85,9.66,3.78l-2.46,5.52c-4.32-1.32-8.25-3.15-11.64-5.52-3.36,2.37-7.32,4.26-11.61,5.55l-2.43-5.43c3.66-.93,6.93-2.22,9.69-3.84Zm4.38-3.3c2.1-2.01,3.66-4.38,4.5-7.05h-9.21c.99,2.7,2.58,5.07,4.71,7.05Z"/></g><g><path d="M2100.03,612.1v1.92h-5.7v-26.82h23.34v26.82h-5.76v-1.92h-11.88Zm11.88-15v-4.89h-11.88v4.89h11.88Zm0,9.9v-5.07h-11.88v5.07h11.88Z"/><path d="M2098.53,640.51v-2.67c-1.23,1.71-2.58,3.27-4.08,4.62l-3.24-5.34c3.99-3,6.93-6.69,8.55-10.44h-7.26v-4.74h10.71v-4.77h5.55v4.77h10.74v4.74h-7.17c1.62,3.63,4.41,7.05,8.43,10.23l-3.15,5.37c-1.56-1.38-2.94-2.91-4.14-4.53v2.76h-4.71v5.01h-5.55v-5.01h-4.68Zm4.68-4.38v-7.74c-.78,2.64-1.98,5.28-3.51,7.74h3.51Zm9.15,0c-1.65-2.55-2.85-5.25-3.6-7.95v7.95h3.6Z"/><path d="M2091.96,653.83h10.92v3.63h-10.92v-3.63Zm.51,12.33h10.02v10.83h-3.96v-1.44h-1.95v1.44h-4.11v-10.83Zm.27-16.32h9.51v3.27h-9.51v-3.27Zm0,8.34h9.51v3.27h-9.51v-3.27Zm0,3.96h9.51v3.27h-9.51v-3.27Zm5.79,9.51v-1.8h-1.95v1.8h1.95Zm21.12-21.81v4.11h-8.31l-.18,1.53h7.35v5.43h1.56v4.17h-17.01v-4.17h2.49l.21-1.71h-2.07v-3.72h2.52l.21-1.53h-3.03v-4.11h16.26Zm-15.96,16.44h15.3v10.71h-4.86v-1.08h-5.67v1.08h-4.77v-10.71Zm10.44,5.46v-1.5h-5.67v1.5h5.67Zm-.63-10.83v-1.71h-2.79l-.18,1.71h2.97Z"/></g></g></svg>